<?xml version="1.0" encoding="utf-8"?>
<!-- Generator: Adobe Illustrator 21.0.0, SVG Export Plug-In . SVG Version: 6.00 Build 0)  -->
<svg version="1.1" id="Layer_1" xmlns="http://www.w3.org/2000/svg" xmlns:xlink="http://www.w3.org/1999/xlink" x="0px" y="0px"
	 viewBox="0 0 179.7 178" style="enable-background:new 0 0 179.7 178;" xml:space="preserve">
<style type="text/css">
	.st0{fill:red;stoke:red;}
</style>
<g>
	<polygon class="st0" points="61.3,117.8 1.1,101.1 51,63.4 48.3,1 99.5,36.8 158,14.9 139.8,74.7 178.7,123.6 116.2,124.7 
		81.7,176.8 	"/>
	<path d="M48.8,2L99,37.1l0.4,0.3l0.5-0.2l57.3-21.4l-17.9,58.5l-0.2,0.5l0.3,0.4l38.1,47.9l-61.2,1.1l-0.5,0l-0.3,0.4l-33.8,51
		l-20-57.9l-0.2-0.5l-0.5-0.1l-59-16.4L51.1,64l0.4-0.3l0-0.5L48.8,2 M47.7,0l2.7,63.2L0,101.3l60.9,16.9L81.6,178l34.9-52.7
		l63.2-1.1l-39.4-49.5l18.5-60.5L99.6,36.3L47.7,0L47.7,0z"/>
</g>
</svg>
