<?xml version="1.0" encoding="utf-8"?>
<!-- Generator: Adobe Illustrator 20.1.0, SVG Export Plug-In . SVG Version: 6.00 Build 0)  -->
<svg version="1.1" id="Layer_1" xmlns="http://www.w3.org/2000/svg" xmlns:xlink="http://www.w3.org/1999/xlink" x="0px" y="0px"
	 viewBox="0 0 378 80.9" style="enable-background:new 0 0 378 80.9;" xml:space="preserve">
<style type="text/css">
	.st0{fill:#8C6239;stroke:#603813;stroke-width:2;stroke-miterlimit:10;}
	.st1{fill:#42210B;}
	.st2{fill:none;}
	.st3{font-family:'MarkerFelt-Wide';}
	.st4{font-size:75px;}
	.st5{font-family:'MarkerFelt-Thin';}
	.st6{font-size:75.4018px;}
	.st7{font-size:75.3109px;}
</style>
<g>
	<path class="st0" d="M88.9,12.8c0,0,0.7-0.2,1.8-0.6c0.5-0.1,0.9-0.2,1.4-0.5c1.8-0.5,4.1-1.1,6.7-1.7c3.7-0.8,8-1.5,11.7-1.4
		c2.9,0,5.7,0.6,7.3,1.8c6.7,5.2,8.8,3.7,11.9,8.8c2.9,5.2,3.7,6.7,3.7,6.7s4.4,2.3,5.9,5.2c1.5,2.9,0.8,8.8-2.3,13.4
		c-2.9,4.4-8.8,13.4-8.2,16.3c0.7,2.9-2.9,5.9-5.9,5.2c-2.9-0.8-13.4,5.9-19.3,3.7c-5.9-2.2-22.2-11.1-25.1-19.3
		c-2.9-8.2-3.7-11.1-1.5-15.5c2.3-4.4,2.3-9.6,2.3-9.6S78.7,14.6,85.1,13c0.7-0.1,1.5-0.2,2.3-0.1l8.8-2.3"/>
	<g>
		<path class="st1" d="M85.5,18.2c0,0,9.2,7,2.8,6.3s-2.8-5.7-2.8-5.7"/>
		<path class="st1" d="M101.7,18.2l4.2,3.5c0,0,4.2-6.3,0-5.7C101.7,16.8,101.7,18.2,101.7,18.2z"/>
		<path class="st1" d="M130.3,21.3l-3.9-3.9c0,0-4.8,5.9-0.6,5.7C130.2,22.8,130.3,21.3,130.3,21.3z"/>
		<path class="st1" d="M105,43.1l-4.2-3.6c0,0-4.4,6.2-0.1,5.7S105,43.1,105,43.1z"/>
		<path class="st1" d="M129.3,37.4l4.2,3.5c0,0,4.2-6.3,0-5.7S129.3,37.4,129.3,37.4z"/>
		<path class="st1" d="M111,37.3l5.3-1.5c0,0-2.8-7.1-4.6-3.2C109.8,36.5,111,37.3,111,37.3z"/>
		<path class="st1" d="M118,50.8l4.2,3.5c0,0,4.2-6.3,0-5.7C118,49.4,118,50.8,118,50.8z"/>
		<path class="st1" d="M103.4,61.3l4.4-3.3c0,0-5.1-5.7-5.4-1.4C102,61,103.4,61.3,103.4,61.3z"/>
		<path class="st1" d="M126,66.5l3.4-4.3c0,0-6.5-4.1-5.7,0.1C124.7,66.6,126,66.5,126,66.5z"/>
		<path class="st1" d="M108,65.4l-0.9,5.4c0,0,7.6,0.5,4.9-2.8S108,65.4,108,65.4z"/>
		<path class="st1" d="M84.3,44l5.1-2c0,0-3.5-6.8-5-2.7C83.1,43.3,84.3,44,84.3,44z"/>
		<path class="st1" d="M83.3,56.4l4.2,3.5c0,0,4.2-6.3,0-5.7C83.3,55.1,83.3,56.4,83.3,56.4z"/>
	</g>
</g>
<g>
	<path class="st0" d="M158.5,12.3c0,0,0.7-0.2,1.8-0.6c0.5-0.1,0.9-0.2,1.4-0.5c1.8-0.5,4.1-1.1,6.7-1.7c3.7-0.8,8-1.5,11.7-1.4
		c2.9,0,5.7,0.6,7.3,1.8c6.7,5.2,8.8,3.7,11.9,8.8c2.9,5.2,3.7,6.7,3.7,6.7s4.4,2.3,5.9,5.2c1.5,2.9,0.8,8.8-2.3,13.4
		s-8.8,13.4-8.2,16.3s-2.9,5.9-5.9,5.2s-13.4,5.9-19.3,3.7c-5.9-2.3-22.2-11.1-25.1-19.3c-2.9-8.2-3.7-11.1-1.5-15.5
		c2.3-4.4,2.3-9.6,2.3-9.6s-0.6-10.9,5.9-12.5c0.7-0.1,1.5-0.2,2.3-0.1l8.8-2.3"/>
	<g>
		<path class="st1" d="M155.1,17.7c0,0,9.2,7,2.8,6.3c-6.3-0.7-2.8-5.7-2.8-5.7"/>
		<path class="st1" d="M171.4,17.7l4.2,3.5c0,0,4.2-6.3,0-5.7C171.4,16.2,171.4,17.7,171.4,17.7z"/>
		<path class="st1" d="M199.9,20.8l-3.9-3.9c0,0-4.8,5.9-0.6,5.7C199.7,22.3,199.9,20.8,199.9,20.8z"/>
		<path class="st1" d="M174.5,42.4l-4.2-3.6c0,0-4.4,6.2-0.1,5.7C174.5,43.9,174.5,42.4,174.5,42.4z"/>
		<path class="st1" d="M198.9,36.7l4.2,3.5c0,0,4.2-6.3,0-5.7C198.9,35.4,198.9,36.7,198.9,36.7z"/>
		<path class="st1" d="M180.6,36.7l5.3-1.5c0,0-2.8-7.1-4.6-3.2C179.4,35.9,180.6,36.7,180.6,36.7z"/>
		<path class="st1" d="M187.6,50.2l4.2,3.5c0,0,4.2-6.3,0-5.7C187.6,48.7,187.6,50.2,187.6,50.2z"/>
		<path class="st1" d="M173,60.7l4.4-3.3c0,0-5.1-5.7-5.4-1.4C171.6,60.4,173,60.7,173,60.7z"/>
		<path class="st1" d="M195.7,66l3.4-4.3c0,0-6.5-4.1-5.7,0.1S195.7,66,195.7,66z"/>
		<path class="st1" d="M177.6,64.8l-0.9,5.4c0,0,7.6,0.5,4.9-2.8C178.9,64.1,177.6,64.8,177.6,64.8z"/>
		<path class="st1" d="M153.9,43.3l5.1-2c0,0-3.5-6.8-5-2.7C152.7,42.6,153.9,43.3,153.9,43.3z"/>
		<path class="st1" d="M152.9,55.9l4.2,3.5c0,0,4.2-6.3,0-5.7C152.9,54.4,152.9,55.9,152.9,55.9z"/>
	</g>
</g>
<rect y="7.5" class="st2" width="102.8" height="63.7"/>
<text transform="matrix(1.701 0 0 1 4.882812e-04 68.5391)" class="st1 st3 st4">G</text>
<rect x="183.6" y="10.9" class="st2" width="102.8" height="62.3"/>
<text transform="matrix(1.7063 0 0 1 211.5732 70.0703)" class="st1 st5 st6">G</text>
<rect x="251.4" y="9.7" class="st2" width="97.8" height="63.5"/>
<text transform="matrix(1.5799 0 0 1 271.3623 71.1602)" class="st1 st5 st7">L</text>
<rect x="308.5" y="7.8" class="st2" width="97.8" height="65.4"/>
<text transform="matrix(1.5352 0 0 1 319.5381 71.1602)" class="st1 st5 st7">E</text>
</svg>
