<?xml version="1.0" encoding="utf-8"?>
<!-- Generator: Adobe Illustrator 21.0.0, SVG Export Plug-In . SVG Version: 6.00 Build 0)  -->
<svg version="1.1" id="Layer_1" xmlns="http://www.w3.org/2000/svg" xmlns:xlink="http://www.w3.org/1999/xlink" x="0px" y="0px"
	 viewBox="0 0 406.3 80.9" style="enable-background:new 0 0 406.3 80.9;" xml:space="preserve">
<style type="text/css">
	.st0{fill:#8C6239;stroke:#603813;stroke-width:2;stroke-miterlimit:10;}
	.st1{fill:#42210B;}
	.st2{fill:none;}
	.st3{font-family:'Goma-Cookie__G';}
	.st4{font-size:76.1716px;}
	.st5{font-size:76.0807px;}
</style>
<g>
	<path class="st0" d="M78.8,16.2c0,0,0.6-0.2,1.6-0.5c0.4-0.1,0.8-0.2,1.2-0.4c1.6-0.4,3.6-1,5.9-1.5c3.3-0.7,7.1-1.3,10.3-1.2
		c2.6,0,5,0.5,6.4,1.6c5.9,4.6,7.8,3.3,10.5,7.8c2.6,4.6,3.3,5.9,3.3,5.9s3.9,2,5.2,4.6c1.3,2.6,0.7,7.8-2,11.8
		c-2.6,3.9-7.8,11.8-7.2,14.4s-2.6,5.2-5.2,4.6c-2.6-0.7-11.8,5.2-17,3.3s-19.6-9.8-22.2-17c-2.6-7.2-3.3-9.8-1.3-13.7
		c2-3.9,2-8.5,2-8.5s-0.5-9.6,5.2-11c0.6-0.1,1.3-0.2,2-0.1l7.8-2"/>
	<g>
		<path class="st1" d="M75.8,21c0,0,8.1,6.2,2.5,5.6c-5.6-0.6-2.5-5-2.5-5"/>
		<path class="st1" d="M90.1,21l3.7,3.1c0,0,3.7-5.6,0-5S90.1,21,90.1,21z"/>
		<path class="st1" d="M115.4,23.7l-3.4-3.4c0,0-4.2,5.2-0.5,5C115.3,25,115.4,23.7,115.4,23.7z"/>
		<path class="st1" d="M93,42.9l-3.7-3.2c0,0-3.9,5.5-0.1,5S93,42.9,93,42.9z"/>
		<path class="st1" d="M114.5,37.9l3.7,3.1c0,0,3.7-5.6,0-5C114.5,36.6,114.5,37.9,114.5,37.9z"/>
		<path class="st1" d="M98.3,37.8l4.7-1.3c0,0-2.5-6.3-4.1-2.8C97.3,37.1,98.3,37.8,98.3,37.8z"/>
		<path class="st1" d="M104.5,49.7l3.7,3.1c0,0,3.7-5.6,0-5C104.5,48.5,104.5,49.7,104.5,49.7z"/>
		<path class="st1" d="M91.6,59l3.9-2.9c0,0-4.5-5-4.8-1.2C90.4,58.7,91.6,59,91.6,59z"/>
		<path class="st1" d="M111.6,63.6l3-3.8c0,0-5.7-3.6-5,0.1C110.4,63.7,111.6,63.6,111.6,63.6z"/>
		<path class="st1" d="M95.7,62.6l-0.8,4.8c0,0,6.7,0.4,4.3-2.5C96.8,62,95.7,62.6,95.7,62.6z"/>
		<path class="st1" d="M74.8,43.7l4.5-1.8c0,0-3.1-6-4.4-2.4C73.7,43.1,74.8,43.7,74.8,43.7z"/>
		<path class="st1" d="M73.9,54.7l3.7,3.1c0,0,3.7-5.6,0-5C73.9,53.5,73.9,54.7,73.9,54.7z"/>
	</g>
</g>
<g>
	<path class="st0" d="M138.2,17c0,0,0.6-0.2,1.6-0.5c0.4-0.1,0.8-0.2,1.2-0.4c1.6-0.4,3.6-1,5.9-1.5c3.3-0.7,7.1-1.3,10.3-1.2
		c2.6,0,5,0.5,6.4,1.6c5.9,4.6,7.8,3.3,10.5,7.8c2.6,4.6,3.3,5.9,3.3,5.9s3.9,2,5.2,4.6s0.7,7.8-2,11.8s-7.8,11.8-7.2,14.4
		s-2.6,5.2-5.2,4.6s-11.8,5.2-17,3.3c-5.2-2-19.6-9.8-22.2-17s-3.3-9.8-1.3-13.7c2-3.9,2-8.5,2-8.5s-0.5-9.6,5.2-11
		c0.6-0.1,1.3-0.2,2-0.1l7.8-2"/>
	<g>
		<path class="st1" d="M135.2,21.8c0,0,8.1,6.2,2.5,5.6s-2.5-5-2.5-5"/>
		<path class="st1" d="M149.6,21.8l3.7,3.1c0,0,3.7-5.6,0-5C149.6,20.5,149.6,21.8,149.6,21.8z"/>
		<path class="st1" d="M174.8,24.5l-3.4-3.4c0,0-4.2,5.2-0.5,5S174.8,24.5,174.8,24.5z"/>
		<path class="st1" d="M152.4,43.6l-3.7-3.2c0,0-3.9,5.5-0.1,5C152.4,44.9,152.4,43.6,152.4,43.6z"/>
		<path class="st1" d="M173.9,38.6l3.7,3.1c0,0,3.7-5.6,0-5C173.9,37.4,173.9,38.6,173.9,38.6z"/>
		<path class="st1" d="M157.7,38.6l4.7-1.3c0,0-2.5-6.3-4.1-2.8C156.7,37.9,157.7,38.6,157.7,38.6z"/>
		<path class="st1" d="M163.9,50.5l3.7,3.1c0,0,3.7-5.6,0-5C163.9,49.2,163.9,50.5,163.9,50.5z"/>
		<path class="st1" d="M151,59.8l3.9-2.9c0,0-4.5-5-4.8-1.2C149.8,59.5,151,59.8,151,59.8z"/>
		<path class="st1" d="M171.1,64.4l3-3.8c0,0-5.7-3.6-5,0.1C169.8,64.4,171.1,64.4,171.1,64.4z"/>
		<path class="st1" d="M155.1,63.4l-0.8,4.8c0,0,6.7,0.4,4.3-2.5C156.2,62.8,155.1,63.4,155.1,63.4z"/>
		<path class="st1" d="M134.2,44.4l4.5-1.8c0,0-3.1-6-4.4-2.4C133.1,43.8,134.2,44.4,134.2,44.4z"/>
		<path class="st1" d="M133.3,55.5l3.7,3.1c0,0,3.7-5.6,0-5C133.3,54.2,133.3,55.5,133.3,55.5z"/>
	</g>
</g>
<rect y="7.5" class="st2" width="102.8" height="63.7"/>
<text transform="matrix(1 0 0 1 0 68.5376)" class="st1 st3 st4">G</text>
<rect x="183.6" y="10.9" class="st2" width="102.8" height="62.3"/>
<text transform="matrix(1 0 0 1 183.5732 71.8647)" class="st1 st3 st4">G</text>
<rect x="251.4" y="9.7" class="st2" width="97.8" height="63.5"/>
<text transform="matrix(1 0 0 1 251.3623 70.6167)" class="st1 st3 st5">L</text>
<rect x="308.5" y="7.8" class="st2" width="97.8" height="65.4"/>
<text transform="matrix(1 0 0 1 308.5381 68.772)" class="st1 st3 st5">E</text>
</svg>
